General
      Complete name : Rashomon.1950.BRRip.H264.AAC.5.1ch.Gopo.mp4
      Format : MPEG-4
      Format profile : Base Media
      Codec ID : isom
      File size : 1.33 GiB
      Duration : 1h 28mn
      Overall bit rate : 2 164 Kbps
      Encoded date : UTC 2009-12-25 18:46:49
      Tagged date : UTC 2009-12-25 18:46:49
      Writing application : Yamb 2.1.0.0 [http://yamb.unite-video.com]
   Video #1
      ID : 1
      Format : AVC
      Format/Info : Advanced Video Codec
      Format profile : High@L4.1
      Format settings, CABAC : Yes
      Format settings, ReFrames : 5 frames
      Codec ID : avc1
      Codec ID/Info : Advanced Video Coding
      Duration : 1h 28mn
      Bit rate mode : Variable
      Bit rate : 1 880 Kbps
      Maximum bit rate : 7 592 Kbps
      Width : 992 pixels
      Height : 720 pixels
      Display aspect ratio : 1.378
      Frame rate mode : Constant
      Frame rate : 23.976 fps
      Resolution : 24 bits
      Colorimetry : 4:2:0
      Scan type : Progressive
      Bits/(Pixel*Frame) : 0.110
      Stream size : 1.16 GiB (87%)
      Writing library : x264 core 79 r1360 528c100
      Encoding settings : cabac=1 / ref=5 / deblock=1:0:0 / analyse=0x3:0x113 / me=umh / subme=8 / psy=1 / psy_rd=1.0:0.0 / mixed_ref=1 / me_range=16 / chroma_me=1 / trellis=2 / 8x8dct=1 / cqm=0 / deadzone=21,11 / chroma_qp_offset=-2 / threads=3 / nr=0 / decimate=1 / mbaff=0 / constrained_intra=0 / bframes=3 / b_pyramid=0 / b_adapt=2 / b_bias=0 / direct=3 / wpredb=1 / wpredp=2 / keyint=250 / keyint_min=25 / scenecut=40 / rc_lookahead=30 / rc=2pass / mbtree=1 / bitrate=1880 / ratetol=1.0 / qcomp=0.50 / qpmin=10 / qpmax=51 / qpstep=4 / cplxblur=20.0 / qblur=0.5 / vbv_maxrate=24000 / vbv_bufsize=24000 / ip_ratio=1.10 / aq=1:1.00
      Encoded date : UTC 2009-12-24 12:16:21
      Tagged date : UTC 2009-12-25 18:48:23
   Audio #2
      ID : 2
      Format : AAC
      Format/Info : Advanced Audio Codec
      Format version : Version 4
      Format profile : LC
      Format settings, SBR : No
      Codec ID : 40
      Duration : 1h 28mn
      Bit rate mode : Variable
      Bit rate : 281 Kbps
      Maximum bit rate : 293 Kbps
      Channel(s) : 2 channels
      Channel positions : L R
      Sampling rate : 48.0 KHz
      Resolution : 16 bits
      Stream size : 177 MiB (13%)
      Encoded date : UTC 2009-12-25 18:48:11
      Tagged date : UTC 2009-12-25 18:48:23
	Sample : YES
	Subtitle : English,Romanian

PLOT

In ancient Japan, a woman is raped and her husband killed. The film gives us four viewpoints of the incident - one for each defendant - each revealing a little more detail. Which version, if any, is the real truth about what happened ?
Director: Akira Kurosawa
CASTING 
     
      Toshirô Mifune	... 	Tajômaru
	Machiko Kyô	... 	Masako Kanazawa
	Masayuki Mori	... 	Takehiro Kanazawa
	Takashi Shimura	... 	Woodcutter
	Minoru Chiaki	... 	Priest
	Kichijirô Ueda	... 	Commoner
	Noriko Honma	... 	Medium (as Fumiko Honma)
	Daisuke Katô	... 	Policeman

SOURCE: Rashomon [1950].mkv

Notes: For best performance I suggest you to use KMPlayer(find it with google) for playback
I haven't tested the movies on a PS3 or Xbox or other devices than PC because I don't own one of them but feel free to test them if you have the oportunity.
